<svg width="336" height="218" viewBox="0 0 336 218" fill="none" xmlns="http://www.w3.org/2000/svg">
<path d="M73.0513 25.1889C86.4508 -0.686181 123.548 -0.685912 136.948 25.1889L136.959 25.2104L136.97 25.2329L137.241 25.768L137.25 25.7856L137.259 25.8042L146.87 45.2085C166.687 42.1367 199.714 37.1225 230.271 32.9741C248.558 30.4914 266.253 28.2786 279.78 26.9878C286.466 26.3497 292.626 25.8878 297.499 25.7798C299.843 25.7278 302.624 25.7359 305.299 26.0044C306.593 26.1341 308.657 26.3978 310.97 27.0444C312.231 27.3967 317.671 28.8789 322.546 33.6909L323.016 34.1674L323.065 34.2182L323.453 34.6333L323.494 34.6772L323.533 34.7212L323.868 35.0971L323.887 35.1196L323.908 35.1421C332.28 44.7716 330.388 55.8143 328.368 61.1069L328.172 61.6001C326.301 66.1576 323.542 69.1459 322.514 70.227C320.368 72.4853 317.959 74.3327 316.198 75.5942L315.485 76.0981C311.472 78.9074 306.077 82.1214 300.291 85.3842C288.468 92.0513 272.254 100.457 255.299 108.99C226.629 123.419 194.872 138.694 176.334 147.537L178.95 173.28C181.844 201.778 151.91 222.078 126.504 208.847L105 197.647L83.4956 208.847C58.0897 222.079 28.1569 201.778 31.0513 173.28L34.4067 140.228L13.8745 114.812C-2.84628 94.1147 7.88892 63.0552 33.8218 57.101L60.2427 51.0337L72.7407 25.8042L72.7495 25.7856L72.7583 25.768L73.0288 25.2329L73.0405 25.2104L73.0513 25.1889ZM110.376 39.1196C108.173 34.6705 101.827 34.6707 99.6235 39.1196L84.1802 70.2973L84.1646 70.3276L84.1489 70.3589L84.0083 70.6333L83.9927 70.6645L83.9751 70.6967C81.8023 74.7907 77.9553 77.7498 73.4233 78.7905H73.4224L40.5347 86.3403L40.5356 86.3413C36.2138 87.3336 34.4237 92.5097 37.2104 95.9594L61.3638 125.857L61.6089 126.167C64.0915 129.401 65.2492 133.465 64.8364 137.529L60.8979 176.312C60.4243 180.98 65.2429 184.335 69.4224 182.345L69.6421 182.236L97.6099 167.671C102.242 165.259 107.759 165.259 112.391 167.671L140.362 182.239C144.525 184.407 149.429 181.167 149.122 176.544H149.121L149.099 176.273L145.493 140.771C144.808 134.028 148.432 127.587 154.559 124.679C169.979 117.361 208.103 99.1587 241.812 82.1928C258.679 73.7039 274.373 65.5582 285.553 59.2534C287.508 58.1511 289.308 57.1114 290.942 56.146C288.456 56.3248 285.673 56.5616 282.63 56.852C269.713 58.0847 252.493 60.2326 234.306 62.7016C197.952 67.637 157.969 73.8234 141.331 76.435C134.607 77.4904 128.057 74.1811 124.838 68.2876L124.815 68.2446L124.792 68.2007L124.584 67.8012L124.561 67.7563L124.539 67.7114L110.376 39.1196Z" fill="#FFFF00" stroke="#FF0000" stroke-width="10"/>
</svg>
